# xmcd
#
# Track frame offsets:
#	150
#	21352
#	40174
#	58457
#	72398
#	87381
#	102141
#	123344
#	142166
#	160451
#	174390
#	189375
#
# Disc length: 2721 seconds
#
# Revision: 1
# Processed by: cddbd v1.5.2PL0 Copyright (c) Steve Scherf et al.
# Submitted via: audiograbber 1.83.01
#
DISCID=af0a9f0c
DTITLE=Karaoke Country Hot Hits - Country CHartbusters Vol.42
DYEAR=1900
DGENRE=Karaoke
TTITLE0=If You Ever Have Forever in Mind (Guide Vocals)
TTITLE1=Looking Through Your Eyes (Guide Vocals)
TTITLE2=Cover You in Kisses (Guide Vocals)
TTITLE3=The Other Side (Guide Vocals)
TTITLE4=The Hole (Guide Vocals)
TTITLE5=High on Love (Guide Vocals)
TTITLE6=If You Ever Have Forever in Mind (Performance Tracks)
TTITLE7=Looking Through Your Eyes (Performance Tracks)
TTITLE8=Cover You in Kisses (Performance Tracks)
TTITLE9=The Other Side (Performance Tracks)
TTITLE10=The Hole (Performance Tracks)
TTITLE11=High on Love (Performance Tracks)
EXTD=
EXTT0=
EXTT1=
EXTT2=
EXTT3=
EXTT4=
EXTT5=
EXTT6=
EXTT7=
EXTT8=
EXTT9=
EXTT10=
EXTT11=
PLAYORDER=
